<mxfile host="app.diagrams.net" modified="2021-03-23T20:39:10.813Z" agent="5.0 (Macintosh; Intel Mac OS X 11_2_1) AppleWebKit/537.36 (KHTML, like Gecko) Chrome/89.0.4389.90 Safari/537.36" etag="srymb_wnNMpuJnfohswO" version="14.4.3" type="github">
  <diagram id="miAms7-wk8gSs7gAEDNE" name="Page-1">
    <mxGraphModel dx="1056" dy="1969" grid="1" gridSize="10" guides="1" tooltips="1" connect="1" arrows="1" fold="1" page="1" pageScale="1" pageWidth="850" pageHeight="1100" math="0" shadow="0">
      <root>
        <mxCell id="0" />
        <mxCell id="1" parent="0" />
        <mxCell id="jDIcjREZJwfRCK5uvEHR-30" value="Generic Drug" style="swimlane;fontStyle=0;childLayout=stackLayout;vertical=1;startSize=26;verticalStack=0;resizeParent=1;resizeParentMax=0;resizeLast=0;collapsible=1;marginBottom=0;align=center;fontSize=14;" vertex="1" parent="1">
          <mxGeometry x="40" y="260" width="160" height="70" as="geometry" />
        </mxCell>
        <mxCell id="jDIcjREZJwfRCK5uvEHR-31" value="DrugID" style="text;fillColor=none;spacingLeft=4;spacingRight=4;overflow=hidden;rotatable=0;points=[[0,0.5],[1,0.5]];portConstraint=eastwest;fontSize=12;strokeColor=#000000;fontStyle=4" vertex="1" parent="jDIcjREZJwfRCK5uvEHR-30">
          <mxGeometry y="26" width="160" height="44" as="geometry" />
        </mxCell>
        <mxCell id="jDIcjREZJwfRCK5uvEHR-34" value="Generic Drug Side Effects" style="swimlane;fontStyle=0;childLayout=stackLayout;vertical=1;startSize=26;verticalStack=0;resizeParent=1;resizeParentMax=0;resizeLast=0;collapsible=1;marginBottom=0;align=center;fontSize=14;" vertex="1" parent="1">
          <mxGeometry x="170" y="390" width="320" height="70" as="geometry" />
        </mxCell>
        <mxCell id="jDIcjREZJwfRCK5uvEHR-35" value="FK_DrugID" style="text;fillColor=none;spacingLeft=4;spacingRight=4;overflow=hidden;rotatable=0;points=[[0,0.5],[1,0.5]];portConstraint=eastwest;fontSize=12;strokeColor=#000000;fontStyle=4" vertex="1" parent="jDIcjREZJwfRCK5uvEHR-34">
          <mxGeometry y="26" width="160" height="44" as="geometry" />
        </mxCell>
        <mxCell id="jDIcjREZJwfRCK5uvEHR-36" value="SideEffect" style="text;fillColor=none;spacingLeft=4;spacingRight=4;overflow=hidden;rotatable=0;points=[[0,0.5],[1,0.5]];portConstraint=eastwest;fontSize=12;strokeColor=#000000;fontStyle=4" vertex="1" parent="jDIcjREZJwfRCK5uvEHR-34">
          <mxGeometry x="160" y="26" width="160" height="44" as="geometry" />
        </mxCell>
        <mxCell id="jDIcjREZJwfRCK5uvEHR-39" value="Generic Drug Interactions" style="swimlane;fontStyle=0;childLayout=stackLayout;vertical=1;startSize=26;verticalStack=0;resizeParent=1;resizeParentMax=0;resizeLast=0;collapsible=1;marginBottom=0;align=center;fontSize=14;flipH=1;flipV=0;" vertex="1" parent="1">
          <mxGeometry x="450" y="110" width="670" height="70" as="geometry" />
        </mxCell>
        <mxCell id="jDIcjREZJwfRCK5uvEHR-40" value="FKDrugID_1" style="text;fillColor=none;spacingLeft=4;spacingRight=4;overflow=hidden;rotatable=0;points=[[0,0.5],[1,0.5]];portConstraint=eastwest;fontSize=12;strokeColor=#000000;fontStyle=4" vertex="1" parent="jDIcjREZJwfRCK5uvEHR-39">
          <mxGeometry y="26" width="190" height="44" as="geometry" />
        </mxCell>
        <mxCell id="jDIcjREZJwfRCK5uvEHR-41" value="FKDrugID_2" style="text;fillColor=none;spacingLeft=4;spacingRight=4;overflow=hidden;rotatable=0;points=[[0,0.5],[1,0.5]];portConstraint=eastwest;fontSize=12;strokeColor=#000000;fontStyle=4" vertex="1" parent="jDIcjREZJwfRCK5uvEHR-39">
          <mxGeometry x="190" y="26" width="160" height="44" as="geometry" />
        </mxCell>
        <mxCell id="jDIcjREZJwfRCK5uvEHR-42" value="Severity" style="text;fillColor=none;spacingLeft=4;spacingRight=4;overflow=hidden;rotatable=0;points=[[0,0.5],[1,0.5]];portConstraint=eastwest;fontSize=12;strokeColor=#000000;" vertex="1" parent="jDIcjREZJwfRCK5uvEHR-39">
          <mxGeometry x="350" y="26" width="160" height="44" as="geometry" />
        </mxCell>
        <mxCell id="jDIcjREZJwfRCK5uvEHR-48" value="Cause" style="text;fillColor=none;spacingLeft=4;spacingRight=4;overflow=hidden;rotatable=0;points=[[0,0.5],[1,0.5]];portConstraint=eastwest;fontSize=12;strokeColor=#000000;" vertex="1" parent="jDIcjREZJwfRCK5uvEHR-39">
          <mxGeometry x="510" y="26" width="160" height="44" as="geometry" />
        </mxCell>
        <mxCell id="jDIcjREZJwfRCK5uvEHR-51" style="edgeStyle=orthogonalEdgeStyle;rounded=0;orthogonalLoop=1;jettySize=auto;html=1;exitX=0;exitY=0.5;exitDx=0;exitDy=0;entryX=0.406;entryY=1;entryDx=0;entryDy=0;entryPerimeter=0;" edge="1" parent="1" source="jDIcjREZJwfRCK5uvEHR-35" target="jDIcjREZJwfRCK5uvEHR-31">
          <mxGeometry relative="1" as="geometry" />
        </mxCell>
        <mxCell id="jDIcjREZJwfRCK5uvEHR-53" style="edgeStyle=orthogonalEdgeStyle;rounded=0;orthogonalLoop=1;jettySize=auto;html=1;exitX=0;exitY=0.5;exitDx=0;exitDy=0;entryX=1;entryY=0.5;entryDx=0;entryDy=0;" edge="1" parent="1" source="jDIcjREZJwfRCK5uvEHR-40" target="jDIcjREZJwfRCK5uvEHR-31">
          <mxGeometry relative="1" as="geometry">
            <mxPoint x="440" y="270" as="targetPoint" />
            <Array as="points">
              <mxPoint x="450" y="210" />
              <mxPoint x="325" y="210" />
              <mxPoint x="325" y="308" />
            </Array>
          </mxGeometry>
        </mxCell>
        <mxCell id="jDIcjREZJwfRCK5uvEHR-54" style="edgeStyle=orthogonalEdgeStyle;rounded=0;orthogonalLoop=1;jettySize=auto;html=1;exitX=0.406;exitY=0.977;exitDx=0;exitDy=0;entryX=1;entryY=0.5;entryDx=0;entryDy=0;exitPerimeter=0;" edge="1" parent="1" source="jDIcjREZJwfRCK5uvEHR-41" target="jDIcjREZJwfRCK5uvEHR-31">
          <mxGeometry relative="1" as="geometry">
            <Array as="points">
              <mxPoint x="705" y="308" />
            </Array>
          </mxGeometry>
        </mxCell>
        <mxCell id="jDIcjREZJwfRCK5uvEHR-55" value="CompanyDrug" style="swimlane;fontStyle=0;childLayout=stackLayout;vertical=1;startSize=26;verticalStack=0;resizeParent=1;resizeParentMax=0;resizeLast=0;collapsible=1;marginBottom=0;align=center;fontSize=14;" vertex="1" parent="1">
          <mxGeometry x="570" y="-220" width="640" height="70" as="geometry" />
        </mxCell>
        <mxCell id="jDIcjREZJwfRCK5uvEHR-64" value="FK_GenericDrugID" style="text;fillColor=none;spacingLeft=4;spacingRight=4;overflow=hidden;rotatable=0;points=[[0,0.5],[1,0.5]];portConstraint=eastwest;fontSize=12;strokeColor=#000000;fontStyle=0" vertex="1" parent="jDIcjREZJwfRCK5uvEHR-55">
          <mxGeometry y="26" width="160" height="44" as="geometry" />
        </mxCell>
        <mxCell id="jDIcjREZJwfRCK5uvEHR-56" value="DrugID" style="text;fillColor=none;spacingLeft=4;spacingRight=4;overflow=hidden;rotatable=0;points=[[0,0.5],[1,0.5]];portConstraint=eastwest;fontSize=12;strokeColor=#000000;fontStyle=4" vertex="1" parent="jDIcjREZJwfRCK5uvEHR-55">
          <mxGeometry x="160" y="26" width="160" height="44" as="geometry" />
        </mxCell>
        <mxCell id="jDIcjREZJwfRCK5uvEHR-57" value="FK_CompanyID" style="text;fillColor=none;spacingLeft=4;spacingRight=4;overflow=hidden;rotatable=0;points=[[0,0.5],[1,0.5]];portConstraint=eastwest;fontSize=12;strokeColor=#000000;fontStyle=4" vertex="1" parent="jDIcjREZJwfRCK5uvEHR-55">
          <mxGeometry x="320" y="26" width="160" height="44" as="geometry" />
        </mxCell>
        <mxCell id="jDIcjREZJwfRCK5uvEHR-58" value="Name" style="text;fillColor=none;spacingLeft=4;spacingRight=4;overflow=hidden;rotatable=0;points=[[0,0.5],[1,0.5]];portConstraint=eastwest;fontSize=12;strokeColor=#000000;" vertex="1" parent="jDIcjREZJwfRCK5uvEHR-55">
          <mxGeometry x="480" y="26" width="160" height="44" as="geometry" />
        </mxCell>
        <mxCell id="jDIcjREZJwfRCK5uvEHR-65" style="edgeStyle=orthogonalEdgeStyle;rounded=0;orthogonalLoop=1;jettySize=auto;html=1;exitX=0;exitY=0.5;exitDx=0;exitDy=0;entryX=1;entryY=0.5;entryDx=0;entryDy=0;" edge="1" parent="1" source="jDIcjREZJwfRCK5uvEHR-64" target="jDIcjREZJwfRCK5uvEHR-31">
          <mxGeometry relative="1" as="geometry" />
        </mxCell>
        <mxCell id="jDIcjREZJwfRCK5uvEHR-67" value="Pharmaceutical Company" style="swimlane;fontStyle=0;childLayout=stackLayout;vertical=1;startSize=26;verticalStack=0;resizeParent=1;resizeParentMax=0;resizeLast=0;collapsible=1;marginBottom=0;align=center;fontSize=14;" vertex="1" parent="1">
          <mxGeometry x="1470" y="-230" width="320" height="70" as="geometry" />
        </mxCell>
        <mxCell id="jDIcjREZJwfRCK5uvEHR-68" value="Country" style="text;fillColor=none;spacingLeft=4;spacingRight=4;overflow=hidden;rotatable=0;points=[[0,0.5],[1,0.5]];portConstraint=eastwest;fontSize=12;strokeColor=#000000;" vertex="1" parent="jDIcjREZJwfRCK5uvEHR-67">
          <mxGeometry y="26" width="160" height="44" as="geometry" />
        </mxCell>
        <mxCell id="jDIcjREZJwfRCK5uvEHR-69" value="FK_CompanyID" style="text;fillColor=none;spacingLeft=4;spacingRight=4;overflow=hidden;rotatable=0;points=[[0,0.5],[1,0.5]];portConstraint=eastwest;fontSize=12;strokeColor=#000000;fontStyle=4" vertex="1" parent="jDIcjREZJwfRCK5uvEHR-67">
          <mxGeometry x="160" y="26" width="160" height="44" as="geometry" />
        </mxCell>
        <mxCell id="jDIcjREZJwfRCK5uvEHR-71" value="Business" style="swimlane;fontStyle=0;childLayout=stackLayout;vertical=1;startSize=26;verticalStack=0;resizeParent=1;resizeParentMax=0;resizeLast=0;collapsible=1;marginBottom=0;align=center;fontSize=14;" vertex="1" parent="1">
          <mxGeometry x="1980" y="-250" width="1125" height="70" as="geometry" />
        </mxCell>
        <mxCell id="jDIcjREZJwfRCK5uvEHR-72" value="Name" style="text;fillColor=none;spacingLeft=4;spacingRight=4;overflow=hidden;rotatable=0;points=[[0,0.5],[1,0.5]];portConstraint=eastwest;fontSize=12;strokeColor=#000000;" vertex="1" parent="jDIcjREZJwfRCK5uvEHR-71">
          <mxGeometry y="26" width="160" height="44" as="geometry" />
        </mxCell>
        <mxCell id="jDIcjREZJwfRCK5uvEHR-73" value="Phone Number" style="text;fillColor=none;spacingLeft=4;spacingRight=4;overflow=hidden;rotatable=0;points=[[0,0.5],[1,0.5]];portConstraint=eastwest;fontSize=12;strokeColor=#000000;" vertex="1" parent="jDIcjREZJwfRCK5uvEHR-71">
          <mxGeometry x="160" y="26" width="160" height="44" as="geometry" />
        </mxCell>
        <mxCell id="jDIcjREZJwfRCK5uvEHR-74" value="CompanyID" style="text;fillColor=none;spacingLeft=4;spacingRight=4;overflow=hidden;rotatable=0;points=[[0,0.5],[1,0.5]];portConstraint=eastwest;fontSize=12;strokeColor=#000000;fontStyle=4" vertex="1" parent="jDIcjREZJwfRCK5uvEHR-71">
          <mxGeometry x="320" y="26" width="161" height="44" as="geometry" />
        </mxCell>
        <mxCell id="jDIcjREZJwfRCK5uvEHR-75" value="Street" style="text;fillColor=none;spacingLeft=4;spacingRight=4;overflow=hidden;rotatable=0;points=[[0,0.5],[1,0.5]];portConstraint=eastwest;fontSize=12;strokeColor=#000000;fontStyle=0" vertex="1" parent="jDIcjREZJwfRCK5uvEHR-71">
          <mxGeometry x="481" y="26" width="161" height="44" as="geometry" />
        </mxCell>
        <mxCell id="jDIcjREZJwfRCK5uvEHR-76" value="Zipcode" style="text;fillColor=none;spacingLeft=4;spacingRight=4;overflow=hidden;rotatable=0;points=[[0,0.5],[1,0.5]];portConstraint=eastwest;fontSize=12;strokeColor=#000000;fontStyle=0" vertex="1" parent="jDIcjREZJwfRCK5uvEHR-71">
          <mxGeometry x="642" y="26" width="161" height="44" as="geometry" />
        </mxCell>
        <mxCell id="jDIcjREZJwfRCK5uvEHR-77" value="City" style="text;fillColor=none;spacingLeft=4;spacingRight=4;overflow=hidden;rotatable=0;points=[[0,0.5],[1,0.5]];portConstraint=eastwest;fontSize=12;strokeColor=#000000;fontStyle=0" vertex="1" parent="jDIcjREZJwfRCK5uvEHR-71">
          <mxGeometry x="803" y="26" width="161" height="44" as="geometry" />
        </mxCell>
        <mxCell id="jDIcjREZJwfRCK5uvEHR-78" value="State" style="text;fillColor=none;spacingLeft=4;spacingRight=4;overflow=hidden;rotatable=0;points=[[0,0.5],[1,0.5]];portConstraint=eastwest;fontSize=12;strokeColor=#000000;fontStyle=0" vertex="1" parent="jDIcjREZJwfRCK5uvEHR-71">
          <mxGeometry x="964" y="26" width="161" height="44" as="geometry" />
        </mxCell>
        <mxCell id="jDIcjREZJwfRCK5uvEHR-79" style="edgeStyle=orthogonalEdgeStyle;rounded=0;orthogonalLoop=1;jettySize=auto;html=1;exitX=1;exitY=0.5;exitDx=0;exitDy=0;entryX=0.497;entryY=1;entryDx=0;entryDy=0;entryPerimeter=0;" edge="1" parent="1" source="jDIcjREZJwfRCK5uvEHR-69" target="jDIcjREZJwfRCK5uvEHR-74">
          <mxGeometry relative="1" as="geometry" />
        </mxCell>
        <mxCell id="jDIcjREZJwfRCK5uvEHR-80" style="edgeStyle=orthogonalEdgeStyle;rounded=0;orthogonalLoop=1;jettySize=auto;html=1;exitX=0.463;exitY=1.045;exitDx=0;exitDy=0;exitPerimeter=0;entryX=0.456;entryY=1.045;entryDx=0;entryDy=0;entryPerimeter=0;" edge="1" parent="1" source="jDIcjREZJwfRCK5uvEHR-57" target="jDIcjREZJwfRCK5uvEHR-69">
          <mxGeometry relative="1" as="geometry">
            <mxPoint x="1710" y="-148" as="targetPoint" />
            <Array as="points">
              <mxPoint x="964" y="-70" />
              <mxPoint x="1360" y="-70" />
              <mxPoint x="1360" y="-80" />
              <mxPoint x="1703" y="-80" />
            </Array>
          </mxGeometry>
        </mxCell>
        <mxCell id="jDIcjREZJwfRCK5uvEHR-81" value="Pharmacy" style="swimlane;fontStyle=0;childLayout=stackLayout;vertical=1;startSize=26;verticalStack=0;resizeParent=1;resizeParentMax=0;resizeLast=0;collapsible=1;marginBottom=0;align=center;fontSize=14;" vertex="1" parent="1">
          <mxGeometry x="1860" y="-60" width="640" height="70" as="geometry" />
        </mxCell>
        <mxCell id="jDIcjREZJwfRCK5uvEHR-82" value="Pharmacy License" style="text;fillColor=none;spacingLeft=4;spacingRight=4;overflow=hidden;rotatable=0;points=[[0,0.5],[1,0.5]];portConstraint=eastwest;fontSize=12;strokeColor=#000000;" vertex="1" parent="jDIcjREZJwfRCK5uvEHR-81">
          <mxGeometry y="26" width="160" height="44" as="geometry" />
        </mxCell>
        <mxCell id="jDIcjREZJwfRCK5uvEHR-83" value="OpeningHour" style="text;fillColor=none;spacingLeft=4;spacingRight=4;overflow=hidden;rotatable=0;points=[[0,0.5],[1,0.5]];portConstraint=eastwest;fontSize=12;strokeColor=#000000;" vertex="1" parent="jDIcjREZJwfRCK5uvEHR-81">
          <mxGeometry x="160" y="26" width="160" height="44" as="geometry" />
        </mxCell>
        <mxCell id="jDIcjREZJwfRCK5uvEHR-84" value="ClosingHour" style="text;fillColor=none;spacingLeft=4;spacingRight=4;overflow=hidden;rotatable=0;points=[[0,0.5],[1,0.5]];portConstraint=eastwest;fontSize=12;strokeColor=#000000;" vertex="1" parent="jDIcjREZJwfRCK5uvEHR-81">
          <mxGeometry x="320" y="26" width="160" height="44" as="geometry" />
        </mxCell>
        <mxCell id="jDIcjREZJwfRCK5uvEHR-85" value="FK_PharmacyID" style="text;fillColor=none;spacingLeft=4;spacingRight=4;overflow=hidden;rotatable=0;points=[[0,0.5],[1,0.5]];portConstraint=eastwest;fontSize=12;strokeColor=#000000;fontStyle=4" vertex="1" parent="jDIcjREZJwfRCK5uvEHR-81">
          <mxGeometry x="480" y="26" width="160" height="44" as="geometry" />
        </mxCell>
        <mxCell id="jDIcjREZJwfRCK5uvEHR-86" style="edgeStyle=orthogonalEdgeStyle;rounded=0;orthogonalLoop=1;jettySize=auto;html=1;exitX=1;exitY=0.5;exitDx=0;exitDy=0;" edge="1" parent="1" source="jDIcjREZJwfRCK5uvEHR-85">
          <mxGeometry relative="1" as="geometry">
            <mxPoint x="2380" y="-130" as="targetPoint" />
          </mxGeometry>
        </mxCell>
        <mxCell id="jDIcjREZJwfRCK5uvEHR-87" value="Medical Facility" style="swimlane;fontStyle=0;childLayout=stackLayout;vertical=1;startSize=26;verticalStack=0;resizeParent=1;resizeParentMax=0;resizeLast=0;collapsible=1;marginBottom=0;align=center;fontSize=14;" vertex="1" parent="1">
          <mxGeometry x="2790" y="70" width="160" height="70" as="geometry" />
        </mxCell>
        <mxCell id="jDIcjREZJwfRCK5uvEHR-88" value="FK_FacilityID" style="text;fillColor=none;spacingLeft=4;spacingRight=4;overflow=hidden;rotatable=0;points=[[0,0.5],[1,0.5]];portConstraint=eastwest;fontSize=12;strokeColor=#000000;fontStyle=4" vertex="1" parent="jDIcjREZJwfRCK5uvEHR-87">
          <mxGeometry y="26" width="160" height="44" as="geometry" />
        </mxCell>
        <mxCell id="jDIcjREZJwfRCK5uvEHR-91" value="Medical Research Facility" style="swimlane;fontStyle=0;childLayout=stackLayout;vertical=1;startSize=26;verticalStack=0;resizeParent=1;resizeParentMax=0;resizeLast=0;collapsible=1;marginBottom=0;align=center;fontSize=14;" vertex="1" parent="1">
          <mxGeometry x="3190" y="160" width="480" height="70" as="geometry" />
        </mxCell>
        <mxCell id="jDIcjREZJwfRCK5uvEHR-92" value="FK_ResearchFacilityID" style="text;fillColor=none;spacingLeft=4;spacingRight=4;overflow=hidden;rotatable=0;points=[[0,0.5],[1,0.5]];portConstraint=eastwest;fontSize=12;strokeColor=#000000;fontStyle=4" vertex="1" parent="jDIcjREZJwfRCK5uvEHR-91">
          <mxGeometry y="26" width="160" height="44" as="geometry" />
        </mxCell>
        <mxCell id="jDIcjREZJwfRCK5uvEHR-93" value="Funding" style="text;fillColor=none;spacingLeft=4;spacingRight=4;overflow=hidden;rotatable=0;points=[[0,0.5],[1,0.5]];portConstraint=eastwest;fontSize=12;strokeColor=#000000;" vertex="1" parent="jDIcjREZJwfRCK5uvEHR-91">
          <mxGeometry x="160" y="26" width="160" height="44" as="geometry" />
        </mxCell>
        <mxCell id="jDIcjREZJwfRCK5uvEHR-96" value="Research Specialty" style="text;fillColor=none;spacingLeft=4;spacingRight=4;overflow=hidden;rotatable=0;points=[[0,0.5],[1,0.5]];portConstraint=eastwest;fontSize=12;strokeColor=#000000;" vertex="1" parent="jDIcjREZJwfRCK5uvEHR-91">
          <mxGeometry x="320" y="26" width="160" height="44" as="geometry" />
        </mxCell>
        <mxCell id="jDIcjREZJwfRCK5uvEHR-95" style="edgeStyle=orthogonalEdgeStyle;rounded=0;orthogonalLoop=1;jettySize=auto;html=1;exitX=0;exitY=0.5;exitDx=0;exitDy=0;entryX=0.484;entryY=1.045;entryDx=0;entryDy=0;entryPerimeter=0;" edge="1" parent="1" source="jDIcjREZJwfRCK5uvEHR-88" target="jDIcjREZJwfRCK5uvEHR-74">
          <mxGeometry relative="1" as="geometry">
            <mxPoint x="2600" y="60" as="targetPoint" />
          </mxGeometry>
        </mxCell>
        <mxCell id="jDIcjREZJwfRCK5uvEHR-97" style="edgeStyle=orthogonalEdgeStyle;rounded=0;orthogonalLoop=1;jettySize=auto;html=1;exitX=0;exitY=0.5;exitDx=0;exitDy=0;entryX=0.495;entryY=1.02;entryDx=0;entryDy=0;entryPerimeter=0;" edge="1" parent="1" source="jDIcjREZJwfRCK5uvEHR-92" target="jDIcjREZJwfRCK5uvEHR-88">
          <mxGeometry relative="1" as="geometry" />
        </mxCell>
        <mxCell id="jDIcjREZJwfRCK5uvEHR-98" value="Clinic" style="swimlane;fontStyle=0;childLayout=stackLayout;vertical=1;startSize=26;verticalStack=0;resizeParent=1;resizeParentMax=0;resizeLast=0;collapsible=1;marginBottom=0;align=center;fontSize=14;" vertex="1" parent="1">
          <mxGeometry x="3190" y="360" width="160" height="70" as="geometry" />
        </mxCell>
        <mxCell id="jDIcjREZJwfRCK5uvEHR-99" value="FK_ClinicID" style="text;fillColor=none;spacingLeft=4;spacingRight=4;overflow=hidden;rotatable=0;points=[[0,0.5],[1,0.5]];portConstraint=eastwest;fontSize=12;strokeColor=#000000;fontStyle=4" vertex="1" parent="jDIcjREZJwfRCK5uvEHR-98">
          <mxGeometry y="26" width="160" height="44" as="geometry" />
        </mxCell>
        <mxCell id="jDIcjREZJwfRCK5uvEHR-102" style="edgeStyle=orthogonalEdgeStyle;rounded=0;orthogonalLoop=1;jettySize=auto;html=1;exitX=0;exitY=0.5;exitDx=0;exitDy=0;" edge="1" parent="1" source="jDIcjREZJwfRCK5uvEHR-99">
          <mxGeometry relative="1" as="geometry">
            <mxPoint x="2870" y="160" as="targetPoint" />
          </mxGeometry>
        </mxCell>
        <mxCell id="jDIcjREZJwfRCK5uvEHR-103" value="Appointment" style="swimlane;fontStyle=0;childLayout=stackLayout;vertical=1;startSize=26;verticalStack=0;resizeParent=1;resizeParentMax=0;resizeLast=0;collapsible=1;marginBottom=0;align=center;fontSize=14;" vertex="1" parent="1">
          <mxGeometry x="3430" y="440" width="800" height="70" as="geometry" />
        </mxCell>
        <mxCell id="jDIcjREZJwfRCK5uvEHR-104" value="FK_CompanyID" style="text;fillColor=none;spacingLeft=4;spacingRight=4;overflow=hidden;rotatable=0;points=[[0,0.5],[1,0.5]];portConstraint=eastwest;fontSize=12;strokeColor=#000000;fontStyle=4" vertex="1" parent="jDIcjREZJwfRCK5uvEHR-103">
          <mxGeometry y="26" width="160" height="44" as="geometry" />
        </mxCell>
        <mxCell id="jDIcjREZJwfRCK5uvEHR-105" value="Date" style="text;fillColor=none;spacingLeft=4;spacingRight=4;overflow=hidden;rotatable=0;points=[[0,0.5],[1,0.5]];portConstraint=eastwest;fontSize=12;strokeColor=#000000;fontStyle=4" vertex="1" parent="jDIcjREZJwfRCK5uvEHR-103">
          <mxGeometry x="160" y="26" width="160" height="44" as="geometry" />
        </mxCell>
        <mxCell id="jDIcjREZJwfRCK5uvEHR-108" value="Attended" style="text;fillColor=none;spacingLeft=4;spacingRight=4;overflow=hidden;rotatable=0;points=[[0,0.5],[1,0.5]];portConstraint=eastwest;fontSize=12;strokeColor=#000000;" vertex="1" parent="jDIcjREZJwfRCK5uvEHR-103">
          <mxGeometry x="320" y="26" width="160" height="44" as="geometry" />
        </mxCell>
        <mxCell id="jDIcjREZJwfRCK5uvEHR-109" value="Reason" style="text;fillColor=none;spacingLeft=4;spacingRight=4;overflow=hidden;rotatable=0;points=[[0,0.5],[1,0.5]];portConstraint=eastwest;fontSize=12;strokeColor=#000000;" vertex="1" parent="jDIcjREZJwfRCK5uvEHR-103">
          <mxGeometry x="480" y="26" width="160" height="44" as="geometry" />
        </mxCell>
        <mxCell id="jDIcjREZJwfRCK5uvEHR-110" value="FK_PatientID" style="text;fillColor=none;spacingLeft=4;spacingRight=4;overflow=hidden;rotatable=0;points=[[0,0.5],[1,0.5]];portConstraint=eastwest;fontSize=12;strokeColor=#000000;fontStyle=4" vertex="1" parent="jDIcjREZJwfRCK5uvEHR-103">
          <mxGeometry x="640" y="26" width="160" height="44" as="geometry" />
        </mxCell>
        <mxCell id="jDIcjREZJwfRCK5uvEHR-107" style="edgeStyle=orthogonalEdgeStyle;rounded=0;orthogonalLoop=1;jettySize=auto;html=1;exitX=0;exitY=0.5;exitDx=0;exitDy=0;entryX=0.458;entryY=1.02;entryDx=0;entryDy=0;entryPerimeter=0;" edge="1" parent="1" source="jDIcjREZJwfRCK5uvEHR-104" target="jDIcjREZJwfRCK5uvEHR-99">
          <mxGeometry relative="1" as="geometry" />
        </mxCell>
        <mxCell id="jDIcjREZJwfRCK5uvEHR-111" value="Patient" style="swimlane;fontStyle=0;childLayout=stackLayout;vertical=1;startSize=26;verticalStack=0;resizeParent=1;resizeParentMax=0;resizeLast=0;collapsible=1;marginBottom=0;align=center;fontSize=14;" vertex="1" parent="1">
          <mxGeometry x="370" y="1040" width="960" height="70" as="geometry" />
        </mxCell>
        <mxCell id="jDIcjREZJwfRCK5uvEHR-112" value="Phone Number" style="text;fillColor=none;spacingLeft=4;spacingRight=4;overflow=hidden;rotatable=0;points=[[0,0.5],[1,0.5]];portConstraint=eastwest;fontSize=12;strokeColor=#000000;" vertex="1" parent="jDIcjREZJwfRCK5uvEHR-111">
          <mxGeometry y="26" width="160" height="44" as="geometry" />
        </mxCell>
        <mxCell id="jDIcjREZJwfRCK5uvEHR-113" value="ID" style="text;fillColor=none;spacingLeft=4;spacingRight=4;overflow=hidden;rotatable=0;points=[[0,0.5],[1,0.5]];portConstraint=eastwest;fontSize=12;strokeColor=#000000;fontStyle=4" vertex="1" parent="jDIcjREZJwfRCK5uvEHR-111">
          <mxGeometry x="160" y="26" width="160" height="44" as="geometry" />
        </mxCell>
        <mxCell id="jDIcjREZJwfRCK5uvEHR-114" value="Name" style="text;fillColor=none;spacingLeft=4;spacingRight=4;overflow=hidden;rotatable=0;points=[[0,0.5],[1,0.5]];portConstraint=eastwest;fontSize=12;strokeColor=#000000;" vertex="1" parent="jDIcjREZJwfRCK5uvEHR-111">
          <mxGeometry x="320" y="26" width="160" height="44" as="geometry" />
        </mxCell>
        <mxCell id="jDIcjREZJwfRCK5uvEHR-115" value="Sex" style="text;fillColor=none;spacingLeft=4;spacingRight=4;overflow=hidden;rotatable=0;points=[[0,0.5],[1,0.5]];portConstraint=eastwest;fontSize=12;strokeColor=#000000;" vertex="1" parent="jDIcjREZJwfRCK5uvEHR-111">
          <mxGeometry x="480" y="26" width="160" height="44" as="geometry" />
        </mxCell>
        <mxCell id="jDIcjREZJwfRCK5uvEHR-116" value="DateOfBirth" style="text;fillColor=none;spacingLeft=4;spacingRight=4;overflow=hidden;rotatable=0;points=[[0,0.5],[1,0.5]];portConstraint=eastwest;fontSize=12;strokeColor=#000000;" vertex="1" parent="jDIcjREZJwfRCK5uvEHR-111">
          <mxGeometry x="640" y="26" width="160" height="44" as="geometry" />
        </mxCell>
        <mxCell id="jDIcjREZJwfRCK5uvEHR-117" value="Age" style="text;fillColor=none;spacingLeft=4;spacingRight=4;overflow=hidden;rotatable=0;points=[[0,0.5],[1,0.5]];portConstraint=eastwest;fontSize=12;strokeColor=#000000;" vertex="1" parent="jDIcjREZJwfRCK5uvEHR-111">
          <mxGeometry x="800" y="26" width="160" height="44" as="geometry" />
        </mxCell>
        <mxCell id="jDIcjREZJwfRCK5uvEHR-120" style="edgeStyle=orthogonalEdgeStyle;rounded=0;orthogonalLoop=1;jettySize=auto;html=1;exitX=1;exitY=0.5;exitDx=0;exitDy=0;" edge="1" parent="1" source="jDIcjREZJwfRCK5uvEHR-110" target="jDIcjREZJwfRCK5uvEHR-113">
          <mxGeometry relative="1" as="geometry">
            <mxPoint x="1260" y="1160" as="targetPoint" />
            <Array as="points">
              <mxPoint x="4250" y="488" />
              <mxPoint x="4250" y="1160" />
              <mxPoint x="1260" y="1160" />
              <mxPoint x="1260" y="1130" />
              <mxPoint x="610" y="1130" />
            </Array>
          </mxGeometry>
        </mxCell>
        <mxCell id="jDIcjREZJwfRCK5uvEHR-121" value="Surgery" style="swimlane;fontStyle=0;childLayout=stackLayout;vertical=1;startSize=26;verticalStack=0;resizeParent=1;resizeParentMax=0;resizeLast=0;collapsible=1;marginBottom=0;align=center;fontSize=14;" vertex="1" parent="1">
          <mxGeometry x="2040" y="640" width="800" height="70" as="geometry" />
        </mxCell>
        <mxCell id="jDIcjREZJwfRCK5uvEHR-122" value="FK_PatientID" style="text;fillColor=none;spacingLeft=4;spacingRight=4;overflow=hidden;rotatable=0;points=[[0,0.5],[1,0.5]];portConstraint=eastwest;fontSize=12;strokeColor=#000000;fontStyle=4" vertex="1" parent="jDIcjREZJwfRCK5uvEHR-121">
          <mxGeometry y="26" width="160" height="44" as="geometry" />
        </mxCell>
        <mxCell id="jDIcjREZJwfRCK5uvEHR-124" value="Cost" style="text;fillColor=none;spacingLeft=4;spacingRight=4;overflow=hidden;rotatable=0;points=[[0,0.5],[1,0.5]];portConstraint=eastwest;fontSize=12;strokeColor=#000000;" vertex="1" parent="jDIcjREZJwfRCK5uvEHR-121">
          <mxGeometry x="160" y="26" width="160" height="44" as="geometry" />
        </mxCell>
        <mxCell id="jDIcjREZJwfRCK5uvEHR-130" value="FK_HospitalID" style="text;fillColor=none;spacingLeft=4;spacingRight=4;overflow=hidden;rotatable=0;points=[[0,0.5],[1,0.5]];portConstraint=eastwest;fontSize=12;strokeColor=#000000;fontStyle=4" vertex="1" parent="jDIcjREZJwfRCK5uvEHR-121">
          <mxGeometry x="320" y="26" width="160" height="44" as="geometry" />
        </mxCell>
        <mxCell id="jDIcjREZJwfRCK5uvEHR-132" value="Name" style="text;fillColor=none;spacingLeft=4;spacingRight=4;overflow=hidden;rotatable=0;points=[[0,0.5],[1,0.5]];portConstraint=eastwest;fontSize=12;strokeColor=#000000;" vertex="1" parent="jDIcjREZJwfRCK5uvEHR-121">
          <mxGeometry x="480" y="26" width="160" height="44" as="geometry" />
        </mxCell>
        <mxCell id="jDIcjREZJwfRCK5uvEHR-133" value="Date" style="text;fillColor=none;spacingLeft=4;spacingRight=4;overflow=hidden;rotatable=0;points=[[0,0.5],[1,0.5]];portConstraint=eastwest;fontSize=12;strokeColor=#000000;fontStyle=4" vertex="1" parent="jDIcjREZJwfRCK5uvEHR-121">
          <mxGeometry x="640" y="26" width="160" height="44" as="geometry" />
        </mxCell>
        <mxCell id="jDIcjREZJwfRCK5uvEHR-125" value="Hospital" style="swimlane;fontStyle=0;childLayout=stackLayout;vertical=1;startSize=26;verticalStack=0;resizeParent=1;resizeParentMax=0;resizeLast=0;collapsible=1;marginBottom=0;align=center;fontSize=14;" vertex="1" parent="1">
          <mxGeometry x="2480" y="470" width="160" height="70" as="geometry" />
        </mxCell>
        <mxCell id="jDIcjREZJwfRCK5uvEHR-126" value="FK_HospitalID" style="text;fillColor=none;spacingLeft=4;spacingRight=4;overflow=hidden;rotatable=0;points=[[0,0.5],[1,0.5]];portConstraint=eastwest;fontSize=12;strokeColor=#000000;fontStyle=4" vertex="1" parent="jDIcjREZJwfRCK5uvEHR-125">
          <mxGeometry y="26" width="160" height="44" as="geometry" />
        </mxCell>
        <mxCell id="jDIcjREZJwfRCK5uvEHR-129" style="edgeStyle=orthogonalEdgeStyle;rounded=0;orthogonalLoop=1;jettySize=auto;html=1;exitX=0;exitY=0.5;exitDx=0;exitDy=0;" edge="1" parent="1" source="jDIcjREZJwfRCK5uvEHR-126">
          <mxGeometry relative="1" as="geometry">
            <mxPoint x="2870" y="200" as="targetPoint" />
          </mxGeometry>
        </mxCell>
        <mxCell id="jDIcjREZJwfRCK5uvEHR-134" style="edgeStyle=orthogonalEdgeStyle;rounded=0;orthogonalLoop=1;jettySize=auto;html=1;exitX=0.633;exitY=1.045;exitDx=0;exitDy=0;exitPerimeter=0;entryX=0;entryY=0.5;entryDx=0;entryDy=0;" edge="1" parent="1" source="jDIcjREZJwfRCK5uvEHR-130" target="jDIcjREZJwfRCK5uvEHR-126">
          <mxGeometry relative="1" as="geometry">
            <mxPoint x="2770" y="790" as="targetPoint" />
          </mxGeometry>
        </mxCell>
        <mxCell id="jDIcjREZJwfRCK5uvEHR-135" style="edgeStyle=orthogonalEdgeStyle;rounded=0;orthogonalLoop=1;jettySize=auto;html=1;exitX=0;exitY=0.5;exitDx=0;exitDy=0;entryX=0.758;entryY=1.008;entryDx=0;entryDy=0;entryPerimeter=0;" edge="1" parent="1" source="jDIcjREZJwfRCK5uvEHR-122" target="jDIcjREZJwfRCK5uvEHR-113">
          <mxGeometry relative="1" as="geometry">
            <mxPoint x="1270" y="660" as="targetPoint" />
            <Array as="points">
              <mxPoint x="2040" y="1160" />
              <mxPoint x="1365" y="1160" />
              <mxPoint x="1365" y="1130" />
              <mxPoint x="651" y="1130" />
            </Array>
          </mxGeometry>
        </mxCell>
        <mxCell id="jDIcjREZJwfRCK5uvEHR-136" value="Urgent Care" style="swimlane;fontStyle=0;childLayout=stackLayout;vertical=1;startSize=26;verticalStack=0;resizeParent=1;resizeParentMax=0;resizeLast=0;collapsible=1;marginBottom=0;align=center;fontSize=14;" vertex="1" parent="1">
          <mxGeometry x="2735" y="500" width="160" height="70" as="geometry" />
        </mxCell>
        <mxCell id="jDIcjREZJwfRCK5uvEHR-137" value="FK_UrgentCareID" style="text;fillColor=none;spacingLeft=4;spacingRight=4;overflow=hidden;rotatable=0;points=[[0,0.5],[1,0.5]];portConstraint=eastwest;fontSize=12;strokeColor=#000000;fontStyle=4" vertex="1" parent="jDIcjREZJwfRCK5uvEHR-136">
          <mxGeometry y="26" width="160" height="44" as="geometry" />
        </mxCell>
        <mxCell id="jDIcjREZJwfRCK5uvEHR-140" value="Walk-in" style="swimlane;fontStyle=0;childLayout=stackLayout;vertical=1;startSize=26;verticalStack=0;resizeParent=1;resizeParentMax=0;resizeLast=0;collapsible=1;marginBottom=0;align=center;fontSize=14;" vertex="1" parent="1">
          <mxGeometry x="3090" y="600" width="640" height="70" as="geometry" />
        </mxCell>
        <mxCell id="jDIcjREZJwfRCK5uvEHR-141" value="FK_UrgentCareID" style="text;fillColor=none;spacingLeft=4;spacingRight=4;overflow=hidden;rotatable=0;points=[[0,0.5],[1,0.5]];portConstraint=eastwest;fontSize=12;strokeColor=#000000;fontStyle=4" vertex="1" parent="jDIcjREZJwfRCK5uvEHR-140">
          <mxGeometry y="26" width="160" height="44" as="geometry" />
        </mxCell>
        <mxCell id="jDIcjREZJwfRCK5uvEHR-142" value="FK_PatientID" style="text;fillColor=none;spacingLeft=4;spacingRight=4;overflow=hidden;rotatable=0;points=[[0,0.5],[1,0.5]];portConstraint=eastwest;fontSize=12;strokeColor=#000000;fontStyle=4" vertex="1" parent="jDIcjREZJwfRCK5uvEHR-140">
          <mxGeometry x="160" y="26" width="160" height="44" as="geometry" />
        </mxCell>
        <mxCell id="jDIcjREZJwfRCK5uvEHR-143" value="Reason" style="text;fillColor=none;spacingLeft=4;spacingRight=4;overflow=hidden;rotatable=0;points=[[0,0.5],[1,0.5]];portConstraint=eastwest;fontSize=12;strokeColor=#000000;" vertex="1" parent="jDIcjREZJwfRCK5uvEHR-140">
          <mxGeometry x="320" y="26" width="160" height="44" as="geometry" />
        </mxCell>
        <mxCell id="jDIcjREZJwfRCK5uvEHR-144" value="Date" style="text;fillColor=none;spacingLeft=4;spacingRight=4;overflow=hidden;rotatable=0;points=[[0,0.5],[1,0.5]];portConstraint=eastwest;fontSize=12;strokeColor=#000000;fontStyle=4" vertex="1" parent="jDIcjREZJwfRCK5uvEHR-140">
          <mxGeometry x="480" y="26" width="160" height="44" as="geometry" />
        </mxCell>
        <mxCell id="jDIcjREZJwfRCK5uvEHR-146" style="edgeStyle=orthogonalEdgeStyle;rounded=0;orthogonalLoop=1;jettySize=auto;html=1;exitX=0.373;exitY=1.015;exitDx=0;exitDy=0;exitPerimeter=0;" edge="1" parent="1" source="jDIcjREZJwfRCK5uvEHR-142">
          <mxGeometry relative="1" as="geometry">
            <mxPoint x="3140" y="840" as="targetPoint" />
            <Array as="points">
              <mxPoint x="3310" y="720" />
              <mxPoint x="3250" y="720" />
              <mxPoint x="3250" y="710" />
              <mxPoint x="3140" y="710" />
            </Array>
          </mxGeometry>
        </mxCell>
        <mxCell id="jDIcjREZJwfRCK5uvEHR-148" style="edgeStyle=orthogonalEdgeStyle;rounded=0;orthogonalLoop=1;jettySize=auto;html=1;exitX=0;exitY=0.5;exitDx=0;exitDy=0;entryX=1;entryY=0.5;entryDx=0;entryDy=0;" edge="1" parent="1" source="jDIcjREZJwfRCK5uvEHR-141" target="jDIcjREZJwfRCK5uvEHR-137">
          <mxGeometry relative="1" as="geometry" />
        </mxCell>
        <mxCell id="jDIcjREZJwfRCK5uvEHR-149" style="edgeStyle=orthogonalEdgeStyle;rounded=0;orthogonalLoop=1;jettySize=auto;html=1;exitX=0;exitY=0.5;exitDx=0;exitDy=0;" edge="1" parent="1" source="jDIcjREZJwfRCK5uvEHR-137">
          <mxGeometry relative="1" as="geometry">
            <mxPoint x="2870" y="350" as="targetPoint" />
          </mxGeometry>
        </mxCell>
        <mxCell id="jDIcjREZJwfRCK5uvEHR-150" value="Medical Professional" style="swimlane;fontStyle=0;childLayout=stackLayout;vertical=1;startSize=26;verticalStack=0;resizeParent=1;resizeParentMax=0;resizeLast=0;collapsible=1;marginBottom=0;align=center;fontSize=14;" vertex="1" parent="1">
          <mxGeometry x="1240" y="500" width="160" height="70" as="geometry" />
        </mxCell>
        <mxCell id="jDIcjREZJwfRCK5uvEHR-151" value="EmployeeID" style="text;fillColor=none;spacingLeft=4;spacingRight=4;overflow=hidden;rotatable=0;points=[[0,0.5],[1,0.5]];portConstraint=eastwest;fontSize=12;strokeColor=#000000;fontStyle=4" vertex="1" parent="jDIcjREZJwfRCK5uvEHR-150">
          <mxGeometry y="26" width="160" height="44" as="geometry" />
        </mxCell>
        <mxCell id="jDIcjREZJwfRCK5uvEHR-159" style="edgeStyle=orthogonalEdgeStyle;rounded=0;orthogonalLoop=1;jettySize=auto;html=1;exitX=0;exitY=0.5;exitDx=0;exitDy=0;entryX=1;entryY=0.5;entryDx=0;entryDy=0;" edge="1" parent="1" source="jDIcjREZJwfRCK5uvEHR-154" target="jDIcjREZJwfRCK5uvEHR-151">
          <mxGeometry relative="1" as="geometry" />
        </mxCell>
        <mxCell id="jDIcjREZJwfRCK5uvEHR-154" value="Doctor" style="swimlane;fontStyle=0;childLayout=stackLayout;vertical=1;startSize=26;verticalStack=0;resizeParent=1;resizeParentMax=0;resizeLast=0;collapsible=1;marginBottom=0;align=center;fontSize=14;" vertex="1" parent="1">
          <mxGeometry x="1870" y="400" width="320" height="70" as="geometry" />
        </mxCell>
        <mxCell id="jDIcjREZJwfRCK5uvEHR-155" value="FK_EmployeeID" style="text;fillColor=none;spacingLeft=4;spacingRight=4;overflow=hidden;rotatable=0;points=[[0,0.5],[1,0.5]];portConstraint=eastwest;fontSize=12;strokeColor=#000000;fontStyle=4" vertex="1" parent="jDIcjREZJwfRCK5uvEHR-154">
          <mxGeometry y="26" width="160" height="44" as="geometry" />
        </mxCell>
        <mxCell id="jDIcjREZJwfRCK5uvEHR-158" value="M.D. Degree" style="text;fillColor=none;spacingLeft=4;spacingRight=4;overflow=hidden;rotatable=0;points=[[0,0.5],[1,0.5]];portConstraint=eastwest;fontSize=12;strokeColor=#000000;" vertex="1" parent="jDIcjREZJwfRCK5uvEHR-154">
          <mxGeometry x="160" y="26" width="160" height="44" as="geometry" />
        </mxCell>
        <mxCell id="jDIcjREZJwfRCK5uvEHR-160" value="Physician&#39;s Assistant" style="swimlane;fontStyle=0;childLayout=stackLayout;vertical=1;startSize=26;verticalStack=0;resizeParent=1;resizeParentMax=0;resizeLast=0;collapsible=1;marginBottom=0;align=center;fontSize=14;" vertex="1" parent="1">
          <mxGeometry x="1730" y="530" width="480" height="70" as="geometry" />
        </mxCell>
        <mxCell id="jDIcjREZJwfRCK5uvEHR-161" value="FK_EmployeeID" style="text;fillColor=none;spacingLeft=4;spacingRight=4;overflow=hidden;rotatable=0;points=[[0,0.5],[1,0.5]];portConstraint=eastwest;fontSize=12;strokeColor=#000000;fontStyle=4" vertex="1" parent="jDIcjREZJwfRCK5uvEHR-160">
          <mxGeometry y="26" width="160" height="44" as="geometry" />
        </mxCell>
        <mxCell id="jDIcjREZJwfRCK5uvEHR-162" value="Certification" style="text;fillColor=none;spacingLeft=4;spacingRight=4;overflow=hidden;rotatable=0;points=[[0,0.5],[1,0.5]];portConstraint=eastwest;fontSize=12;strokeColor=#000000;" vertex="1" parent="jDIcjREZJwfRCK5uvEHR-160">
          <mxGeometry x="160" y="26" width="160" height="44" as="geometry" />
        </mxCell>
        <mxCell id="jDIcjREZJwfRCK5uvEHR-165" value="MS Degree" style="text;fillColor=none;spacingLeft=4;spacingRight=4;overflow=hidden;rotatable=0;points=[[0,0.5],[1,0.5]];portConstraint=eastwest;fontSize=12;strokeColor=#000000;" vertex="1" parent="jDIcjREZJwfRCK5uvEHR-160">
          <mxGeometry x="320" y="26" width="160" height="44" as="geometry" />
        </mxCell>
        <mxCell id="jDIcjREZJwfRCK5uvEHR-164" style="edgeStyle=orthogonalEdgeStyle;rounded=0;orthogonalLoop=1;jettySize=auto;html=1;exitX=0;exitY=0.5;exitDx=0;exitDy=0;entryX=1;entryY=0.5;entryDx=0;entryDy=0;" edge="1" parent="1" source="jDIcjREZJwfRCK5uvEHR-161" target="jDIcjREZJwfRCK5uvEHR-151">
          <mxGeometry relative="1" as="geometry" />
        </mxCell>
        <mxCell id="jDIcjREZJwfRCK5uvEHR-166" value="Nurse Practitioner" style="swimlane;fontStyle=0;childLayout=stackLayout;vertical=1;startSize=26;verticalStack=0;resizeParent=1;resizeParentMax=0;resizeLast=0;collapsible=1;marginBottom=0;align=center;fontSize=14;" vertex="1" parent="1">
          <mxGeometry x="1600" y="750" width="320" height="70" as="geometry" />
        </mxCell>
        <mxCell id="jDIcjREZJwfRCK5uvEHR-167" value="FK_EmployeeID" style="text;fillColor=none;spacingLeft=4;spacingRight=4;overflow=hidden;rotatable=0;points=[[0,0.5],[1,0.5]];portConstraint=eastwest;fontSize=12;strokeColor=#000000;fontStyle=4" vertex="1" parent="jDIcjREZJwfRCK5uvEHR-166">
          <mxGeometry y="26" width="160" height="44" as="geometry" />
        </mxCell>
        <mxCell id="jDIcjREZJwfRCK5uvEHR-168" value="Certification" style="text;fillColor=none;spacingLeft=4;spacingRight=4;overflow=hidden;rotatable=0;points=[[0,0.5],[1,0.5]];portConstraint=eastwest;fontSize=12;strokeColor=#000000;" vertex="1" parent="jDIcjREZJwfRCK5uvEHR-166">
          <mxGeometry x="160" y="26" width="160" height="44" as="geometry" />
        </mxCell>
        <mxCell id="jDIcjREZJwfRCK5uvEHR-170" style="edgeStyle=orthogonalEdgeStyle;rounded=0;orthogonalLoop=1;jettySize=auto;html=1;exitX=0;exitY=0.5;exitDx=0;exitDy=0;entryX=1;entryY=0.5;entryDx=0;entryDy=0;" edge="1" parent="1" source="jDIcjREZJwfRCK5uvEHR-167" target="jDIcjREZJwfRCK5uvEHR-151">
          <mxGeometry relative="1" as="geometry" />
        </mxCell>
        <mxCell id="jDIcjREZJwfRCK5uvEHR-172" value="Researcher" style="swimlane;fontStyle=0;childLayout=stackLayout;vertical=1;startSize=26;verticalStack=0;resizeParent=1;resizeParentMax=0;resizeLast=0;collapsible=1;marginBottom=0;align=center;fontSize=14;" vertex="1" parent="1">
          <mxGeometry x="1200" y="860" width="320" height="70" as="geometry" />
        </mxCell>
        <mxCell id="jDIcjREZJwfRCK5uvEHR-173" value="FK_EmployeeID" style="text;fillColor=none;spacingLeft=4;spacingRight=4;overflow=hidden;rotatable=0;points=[[0,0.5],[1,0.5]];portConstraint=eastwest;fontSize=12;strokeColor=#000000;fontStyle=4" vertex="1" parent="jDIcjREZJwfRCK5uvEHR-172">
          <mxGeometry y="26" width="160" height="44" as="geometry" />
        </mxCell>
        <mxCell id="jDIcjREZJwfRCK5uvEHR-174" value="Research Area" style="text;fillColor=none;spacingLeft=4;spacingRight=4;overflow=hidden;rotatable=0;points=[[0,0.5],[1,0.5]];portConstraint=eastwest;fontSize=12;strokeColor=#000000;" vertex="1" parent="jDIcjREZJwfRCK5uvEHR-172">
          <mxGeometry x="160" y="26" width="160" height="44" as="geometry" />
        </mxCell>
        <mxCell id="jDIcjREZJwfRCK5uvEHR-176" style="edgeStyle=orthogonalEdgeStyle;rounded=0;orthogonalLoop=1;jettySize=auto;html=1;exitX=0;exitY=0.5;exitDx=0;exitDy=0;entryX=0;entryY=0.5;entryDx=0;entryDy=0;" edge="1" parent="1" source="jDIcjREZJwfRCK5uvEHR-173" target="jDIcjREZJwfRCK5uvEHR-151">
          <mxGeometry relative="1" as="geometry" />
        </mxCell>
        <mxCell id="jDIcjREZJwfRCK5uvEHR-177" value="Works At" style="swimlane;fontStyle=0;childLayout=stackLayout;vertical=1;startSize=26;verticalStack=0;resizeParent=1;resizeParentMax=0;resizeLast=0;collapsible=1;marginBottom=0;align=center;fontSize=14;" vertex="1" parent="1">
          <mxGeometry x="1870" y="190" width="320" height="70" as="geometry" />
        </mxCell>
        <mxCell id="jDIcjREZJwfRCK5uvEHR-178" value="FK_EmployeeID" style="text;fillColor=none;spacingLeft=4;spacingRight=4;overflow=hidden;rotatable=0;points=[[0,0.5],[1,0.5]];portConstraint=eastwest;fontSize=12;strokeColor=#000000;fontStyle=4" vertex="1" parent="jDIcjREZJwfRCK5uvEHR-177">
          <mxGeometry y="26" width="160" height="44" as="geometry" />
        </mxCell>
        <mxCell id="jDIcjREZJwfRCK5uvEHR-179" value="FK_FacilityID" style="text;fillColor=none;spacingLeft=4;spacingRight=4;overflow=hidden;rotatable=0;points=[[0,0.5],[1,0.5]];portConstraint=eastwest;fontSize=12;strokeColor=#000000;fontStyle=4" vertex="1" parent="jDIcjREZJwfRCK5uvEHR-177">
          <mxGeometry x="160" y="26" width="160" height="44" as="geometry" />
        </mxCell>
        <mxCell id="jDIcjREZJwfRCK5uvEHR-181" style="edgeStyle=orthogonalEdgeStyle;rounded=0;orthogonalLoop=1;jettySize=auto;html=1;exitX=1;exitY=0.5;exitDx=0;exitDy=0;" edge="1" parent="1" source="jDIcjREZJwfRCK5uvEHR-179">
          <mxGeometry relative="1" as="geometry">
            <mxPoint x="2870" y="160" as="targetPoint" />
          </mxGeometry>
        </mxCell>
        <mxCell id="jDIcjREZJwfRCK5uvEHR-182" style="edgeStyle=orthogonalEdgeStyle;rounded=0;orthogonalLoop=1;jettySize=auto;html=1;exitX=0;exitY=0.5;exitDx=0;exitDy=0;entryX=1;entryY=0.5;entryDx=0;entryDy=0;" edge="1" parent="1" source="jDIcjREZJwfRCK5uvEHR-178" target="jDIcjREZJwfRCK5uvEHR-151">
          <mxGeometry relative="1" as="geometry">
            <Array as="points">
              <mxPoint x="1720" y="238" />
              <mxPoint x="1720" y="548" />
            </Array>
          </mxGeometry>
        </mxCell>
        <mxCell id="jDIcjREZJwfRCK5uvEHR-183" value="Treats" style="swimlane;fontStyle=0;childLayout=stackLayout;vertical=1;startSize=26;verticalStack=0;resizeParent=1;resizeParentMax=0;resizeLast=0;collapsible=1;marginBottom=0;align=center;fontSize=14;" vertex="1" parent="1">
          <mxGeometry x="490" y="680" width="320" height="70" as="geometry" />
        </mxCell>
        <mxCell id="jDIcjREZJwfRCK5uvEHR-184" value="FK_PatientID" style="text;fillColor=none;spacingLeft=4;spacingRight=4;overflow=hidden;rotatable=0;points=[[0,0.5],[1,0.5]];portConstraint=eastwest;fontSize=12;strokeColor=#000000;fontStyle=4" vertex="1" parent="jDIcjREZJwfRCK5uvEHR-183">
          <mxGeometry y="26" width="160" height="44" as="geometry" />
        </mxCell>
        <mxCell id="jDIcjREZJwfRCK5uvEHR-185" value="FK_EmployeeID" style="text;fillColor=none;spacingLeft=4;spacingRight=4;overflow=hidden;rotatable=0;points=[[0,0.5],[1,0.5]];portConstraint=eastwest;fontSize=12;strokeColor=#000000;fontStyle=4" vertex="1" parent="jDIcjREZJwfRCK5uvEHR-183">
          <mxGeometry x="160" y="26" width="160" height="44" as="geometry" />
        </mxCell>
        <mxCell id="jDIcjREZJwfRCK5uvEHR-187" style="edgeStyle=orthogonalEdgeStyle;rounded=0;orthogonalLoop=1;jettySize=auto;html=1;exitX=1;exitY=0.5;exitDx=0;exitDy=0;entryX=0;entryY=0.5;entryDx=0;entryDy=0;" edge="1" parent="1" source="jDIcjREZJwfRCK5uvEHR-185" target="jDIcjREZJwfRCK5uvEHR-151">
          <mxGeometry relative="1" as="geometry" />
        </mxCell>
        <mxCell id="jDIcjREZJwfRCK5uvEHR-189" style="edgeStyle=orthogonalEdgeStyle;rounded=0;orthogonalLoop=1;jettySize=auto;html=1;exitX=0;exitY=0.5;exitDx=0;exitDy=0;entryX=0.188;entryY=1.091;entryDx=0;entryDy=0;entryPerimeter=0;" edge="1" parent="1" source="jDIcjREZJwfRCK5uvEHR-184" target="jDIcjREZJwfRCK5uvEHR-113">
          <mxGeometry relative="1" as="geometry">
            <mxPoint x="260" y="1260" as="targetPoint" />
            <Array as="points">
              <mxPoint x="210" y="728" />
              <mxPoint x="210" y="1170" />
              <mxPoint x="560" y="1170" />
            </Array>
          </mxGeometry>
        </mxCell>
        <mxCell id="jDIcjREZJwfRCK5uvEHR-192" value="Prescription" style="swimlane;fontStyle=0;childLayout=stackLayout;vertical=1;startSize=26;verticalStack=0;resizeParent=1;resizeParentMax=0;resizeLast=0;collapsible=1;marginBottom=0;align=center;fontSize=14;" vertex="1" parent="1">
          <mxGeometry x="590" y="320" width="1120" height="70" as="geometry" />
        </mxCell>
        <mxCell id="jDIcjREZJwfRCK5uvEHR-193" value="FK_PatientID" style="text;fillColor=none;spacingLeft=4;spacingRight=4;overflow=hidden;rotatable=0;points=[[0,0.5],[1,0.5]];portConstraint=eastwest;fontSize=12;strokeColor=#000000;" vertex="1" parent="jDIcjREZJwfRCK5uvEHR-192">
          <mxGeometry y="26" width="160" height="44" as="geometry" />
        </mxCell>
        <mxCell id="jDIcjREZJwfRCK5uvEHR-194" value="PrescriptionID" style="text;fillColor=none;spacingLeft=4;spacingRight=4;overflow=hidden;rotatable=0;points=[[0,0.5],[1,0.5]];portConstraint=eastwest;fontSize=12;strokeColor=#000000;fontStyle=4" vertex="1" parent="jDIcjREZJwfRCK5uvEHR-192">
          <mxGeometry x="160" y="26" width="160" height="44" as="geometry" />
        </mxCell>
        <mxCell id="jDIcjREZJwfRCK5uvEHR-195" value="FK_EmployeeID" style="text;fillColor=none;spacingLeft=4;spacingRight=4;overflow=hidden;rotatable=0;points=[[0,0.5],[1,0.5]];portConstraint=eastwest;fontSize=12;strokeColor=#000000;" vertex="1" parent="jDIcjREZJwfRCK5uvEHR-192">
          <mxGeometry x="320" y="26" width="160" height="44" as="geometry" />
        </mxCell>
        <mxCell id="jDIcjREZJwfRCK5uvEHR-197" value="Duration" style="text;fillColor=none;spacingLeft=4;spacingRight=4;overflow=hidden;rotatable=0;points=[[0,0.5],[1,0.5]];portConstraint=eastwest;fontSize=12;strokeColor=#000000;" vertex="1" parent="jDIcjREZJwfRCK5uvEHR-192">
          <mxGeometry x="480" y="26" width="160" height="44" as="geometry" />
        </mxCell>
        <mxCell id="jDIcjREZJwfRCK5uvEHR-199" value="FK_CompanyID" style="text;fillColor=none;spacingLeft=4;spacingRight=4;overflow=hidden;rotatable=0;points=[[0,0.5],[1,0.5]];portConstraint=eastwest;fontSize=12;strokeColor=#000000;" vertex="1" parent="jDIcjREZJwfRCK5uvEHR-192">
          <mxGeometry x="640" y="26" width="160" height="44" as="geometry" />
        </mxCell>
        <mxCell id="jDIcjREZJwfRCK5uvEHR-200" value="FK_DrugID" style="text;fillColor=none;spacingLeft=4;spacingRight=4;overflow=hidden;rotatable=0;points=[[0,0.5],[1,0.5]];portConstraint=eastwest;fontSize=12;strokeColor=#000000;" vertex="1" parent="jDIcjREZJwfRCK5uvEHR-192">
          <mxGeometry x="800" y="26" width="160" height="44" as="geometry" />
        </mxCell>
        <mxCell id="jDIcjREZJwfRCK5uvEHR-207" value="FK_PharmacyID" style="text;fillColor=none;spacingLeft=4;spacingRight=4;overflow=hidden;rotatable=0;points=[[0,0.5],[1,0.5]];portConstraint=eastwest;fontSize=12;strokeColor=#000000;" vertex="1" parent="jDIcjREZJwfRCK5uvEHR-192">
          <mxGeometry x="960" y="26" width="160" height="44" as="geometry" />
        </mxCell>
        <mxCell id="jDIcjREZJwfRCK5uvEHR-196" style="edgeStyle=orthogonalEdgeStyle;rounded=0;orthogonalLoop=1;jettySize=auto;html=1;exitX=0.415;exitY=1.008;exitDx=0;exitDy=0;entryX=0;entryY=0.5;entryDx=0;entryDy=0;exitPerimeter=0;" edge="1" parent="1" source="jDIcjREZJwfRCK5uvEHR-195" target="jDIcjREZJwfRCK5uvEHR-151">
          <mxGeometry relative="1" as="geometry" />
        </mxCell>
        <mxCell id="jDIcjREZJwfRCK5uvEHR-198" style="edgeStyle=orthogonalEdgeStyle;rounded=0;orthogonalLoop=1;jettySize=auto;html=1;exitX=0.446;exitY=1.083;exitDx=0;exitDy=0;exitPerimeter=0;" edge="1" parent="1" source="jDIcjREZJwfRCK5uvEHR-193">
          <mxGeometry relative="1" as="geometry">
            <mxPoint x="210" y="750" as="targetPoint" />
            <Array as="points">
              <mxPoint x="681" y="580" />
              <mxPoint x="200" y="580" />
              <mxPoint x="200" y="750" />
            </Array>
          </mxGeometry>
        </mxCell>
        <mxCell id="jDIcjREZJwfRCK5uvEHR-205" style="edgeStyle=orthogonalEdgeStyle;rounded=0;orthogonalLoop=1;jettySize=auto;html=1;exitX=0.796;exitY=1.049;exitDx=0;exitDy=0;entryX=0.294;entryY=1.023;entryDx=0;entryDy=0;entryPerimeter=0;exitPerimeter=0;" edge="1" parent="1" source="jDIcjREZJwfRCK5uvEHR-200" target="jDIcjREZJwfRCK5uvEHR-56">
          <mxGeometry relative="1" as="geometry">
            <mxPoint x="780" y="-140" as="targetPoint" />
            <Array as="points">
              <mxPoint x="1517" y="420" />
              <mxPoint x="1750" y="420" />
              <mxPoint x="1750" y="98" />
              <mxPoint x="777" y="98" />
            </Array>
          </mxGeometry>
        </mxCell>
        <mxCell id="jDIcjREZJwfRCK5uvEHR-206" style="edgeStyle=orthogonalEdgeStyle;rounded=0;orthogonalLoop=1;jettySize=auto;html=1;exitX=0.494;exitY=1;exitDx=0;exitDy=0;exitPerimeter=0;" edge="1" parent="1" source="jDIcjREZJwfRCK5uvEHR-199">
          <mxGeometry relative="1" as="geometry">
            <mxPoint x="980" y="-150" as="targetPoint" />
            <Array as="points">
              <mxPoint x="1309" y="410" />
              <mxPoint x="1730" y="410" />
              <mxPoint x="1730" y="-130" />
              <mxPoint x="980" y="-130" />
            </Array>
          </mxGeometry>
        </mxCell>
        <mxCell id="jDIcjREZJwfRCK5uvEHR-208" style="edgeStyle=orthogonalEdgeStyle;rounded=0;orthogonalLoop=1;jettySize=auto;html=1;exitX=1;exitY=0.5;exitDx=0;exitDy=0;entryX=0.688;entryY=1.091;entryDx=0;entryDy=0;entryPerimeter=0;" edge="1" parent="1" source="jDIcjREZJwfRCK5uvEHR-207" target="jDIcjREZJwfRCK5uvEHR-85">
          <mxGeometry relative="1" as="geometry">
            <mxPoint x="2454" y="20" as="targetPoint" />
            <Array as="points">
              <mxPoint x="2450" y="368" />
            </Array>
          </mxGeometry>
        </mxCell>
        <mxCell id="jDIcjREZJwfRCK5uvEHR-209" value="Recieves" style="swimlane;fontStyle=0;childLayout=stackLayout;vertical=1;startSize=26;verticalStack=0;resizeParent=1;resizeParentMax=0;resizeLast=0;collapsible=1;marginBottom=0;align=center;fontSize=14;" vertex="1" parent="1">
          <mxGeometry x="1050" y="-30" width="640" height="70" as="geometry" />
        </mxCell>
        <mxCell id="jDIcjREZJwfRCK5uvEHR-210" value="FK_DrugID" style="text;fillColor=none;spacingLeft=4;spacingRight=4;overflow=hidden;rotatable=0;points=[[0,0.5],[1,0.5]];portConstraint=eastwest;fontSize=12;strokeColor=#000000;fontStyle=4" vertex="1" parent="jDIcjREZJwfRCK5uvEHR-209">
          <mxGeometry y="26" width="160" height="44" as="geometry" />
        </mxCell>
        <mxCell id="jDIcjREZJwfRCK5uvEHR-211" value="FK_CompanyID" style="text;fillColor=none;spacingLeft=4;spacingRight=4;overflow=hidden;rotatable=0;points=[[0,0.5],[1,0.5]];portConstraint=eastwest;fontSize=12;strokeColor=#000000;fontStyle=4" vertex="1" parent="jDIcjREZJwfRCK5uvEHR-209">
          <mxGeometry x="160" y="26" width="160" height="44" as="geometry" />
        </mxCell>
        <mxCell id="jDIcjREZJwfRCK5uvEHR-212" value="FK_PharmacyID" style="text;fillColor=none;spacingLeft=4;spacingRight=4;overflow=hidden;rotatable=0;points=[[0,0.5],[1,0.5]];portConstraint=eastwest;fontSize=12;strokeColor=#000000;fontStyle=4" vertex="1" parent="jDIcjREZJwfRCK5uvEHR-209">
          <mxGeometry x="320" y="26" width="160" height="44" as="geometry" />
        </mxCell>
        <mxCell id="jDIcjREZJwfRCK5uvEHR-213" value="Date" style="text;fillColor=none;spacingLeft=4;spacingRight=4;overflow=hidden;rotatable=0;points=[[0,0.5],[1,0.5]];portConstraint=eastwest;fontSize=12;strokeColor=#000000;fontStyle=4" vertex="1" parent="jDIcjREZJwfRCK5uvEHR-209">
          <mxGeometry x="480" y="26" width="160" height="44" as="geometry" />
        </mxCell>
        <mxCell id="jDIcjREZJwfRCK5uvEHR-214" style="edgeStyle=orthogonalEdgeStyle;rounded=0;orthogonalLoop=1;jettySize=auto;html=1;exitX=0;exitY=0.5;exitDx=0;exitDy=0;entryX=0.3;entryY=1.083;entryDx=0;entryDy=0;entryPerimeter=0;" edge="1" parent="1" source="jDIcjREZJwfRCK5uvEHR-210" target="jDIcjREZJwfRCK5uvEHR-56">
          <mxGeometry relative="1" as="geometry">
            <Array as="points">
              <mxPoint x="778" y="18" />
            </Array>
          </mxGeometry>
        </mxCell>
        <mxCell id="jDIcjREZJwfRCK5uvEHR-215" style="edgeStyle=orthogonalEdgeStyle;rounded=0;orthogonalLoop=1;jettySize=auto;html=1;exitX=0.31;exitY=1.083;exitDx=0;exitDy=0;entryX=0.467;entryY=1.083;entryDx=0;entryDy=0;entryPerimeter=0;exitPerimeter=0;" edge="1" parent="1" source="jDIcjREZJwfRCK5uvEHR-211" target="jDIcjREZJwfRCK5uvEHR-57">
          <mxGeometry relative="1" as="geometry">
            <Array as="points">
              <mxPoint x="1260" y="60" />
              <mxPoint x="965" y="60" />
            </Array>
          </mxGeometry>
        </mxCell>
        <mxCell id="jDIcjREZJwfRCK5uvEHR-217" style="edgeStyle=orthogonalEdgeStyle;rounded=0;orthogonalLoop=1;jettySize=auto;html=1;exitX=0.391;exitY=1.023;exitDx=0;exitDy=0;exitPerimeter=0;entryX=0.534;entryY=1.023;entryDx=0;entryDy=0;entryPerimeter=0;" edge="1" parent="1" source="jDIcjREZJwfRCK5uvEHR-212" target="jDIcjREZJwfRCK5uvEHR-85">
          <mxGeometry relative="1" as="geometry">
            <mxPoint x="2420" y="110" as="targetPoint" />
            <Array as="points">
              <mxPoint x="1433" y="120" />
              <mxPoint x="2425" y="120" />
            </Array>
          </mxGeometry>
        </mxCell>
      </root>
    </mxGraphModel>
  </diagram>
</mxfile>
